<svg xmlns="http://www.w3.org/2000/svg" width="36" height="36" fill="none" viewBox="0 0 36 36">
    <path fill="#1EA1F1" fill-rule="evenodd" d="M0 18C0 8.06 8.06 0 18 0s18 8.06 18 18-8.06 18-18 18S0 27.94 0 18zm26.516-2.85c0-.18-.004-.358-.012-.538.784-.589 1.462-1.321 1.996-2.157-.719.331-1.49.554-2.299.655.827-.517 1.462-1.332 1.76-2.305-.773.478-1.63.823-2.54 1.01-.73-.809-1.77-1.315-2.92-1.315-2.21 0-4.001 1.867-4.001 4.166 0 .326.035.644.102.949-3.324-.173-6.273-1.833-8.246-4.353-.345.613-.54 1.33-.54 2.094 0 1.444.706 2.72 1.779 3.466-.657-.021-1.273-.208-1.812-.52v.052c0 2.018 1.379 3.702 3.21 4.083-.335.095-.69.146-1.055.146-.257 0-.508-.025-.753-.074.509 1.654 1.987 2.858 3.738 2.892-1.367 1.12-3.091 1.784-4.967 1.784-.324 0-.643-.017-.956-.057C10.77 26.311 12.872 27 15.133 27c7.36 0 11.383-6.345 11.383-11.85z" clip-rule="evenodd"/>
</svg>
