<svg xmlns="http://www.w3.org/2000/svg" width="24" height="24" fill="none" viewBox="0 0 24 24">
    <g fill="#fff" stroke="#fff" clip-path="url(#clip0)" opacity=".8">
        <path d="M2.558 5.035l-.001.014-.001.014-.007.12v14.479c0 .977.869 1.702 1.855 1.782l.01.001h.01l.152.007H18.53c1.014 0 1.93-.664 2.038-1.612l.002-.014v-.015l.007-.12.001-.015V5.212c0-.977-.87-1.702-1.856-1.782h-.01l-.01-.001-.152-.006h-1.973c.014-.083.025-.175.025-.275 0-.1-.013-.192-.032-.274h1.96c1.405 0 2.511.991 2.591 2.193l.005.153v14.442c0 1.222-1.05 2.258-2.436 2.334l-.167.004H4.596c-1.404 0-2.51-.991-2.591-2.193L2 19.654V5.212C2 3.99 3.05 2.954 4.436 2.878l.167-.004H6.55c-.015.082-.026.175-.026.274 0 .1.013.193.032.274h-1.96c-1.014 0-1.93.664-2.038 1.613zm13.637-1.613h.002-.002zm.29.373v.002-.002zm-9.554-.92h-.002.002zm-.29-.373V2.5v.002z"/>
        <path d="M10.79 9.04l-.01-.001H9.018c-.113 0-.205-.092-.205-.205 0-.112.092-.204.205-.204h6.127c.113 0 .205.092.205.204 0 .11-.088.2-.196.205l-1.697-.084-1.092-.053.674.86.011.015c.231.313.398.674.485 1.054l.35-.08.097.485h1.163c.097 0 .182.07.201.168l.003.048c-.006.105-.092.19-.197.193l-1.098-.04-.416-.015-.09.406-.04.177c-.313 1.179-1.358 2.036-2.583 2.103l-.151.004-1.213.03.881.833 3.1 2.931c.06.06.077.148.047.227l-.024.043-.027.034c-.08.072-.2.07-.277-.002h0l-4.384-4.147c-.043-.045-.061-.099-.061-.137h0v-.009c-.002-.11.084-.208.21-.212h1.747c.884-.002 1.682-.483 2.104-1.226h.018l.072-.174c.03-.066.059-.134.084-.203l-.49-.19v-.433H9.017s0 0 0 0 0 0 0 0c-.086 0-.164-.055-.193-.137l-.01-.044-.002-.035c.006-.106.094-.191.201-.193l3.56.069.731.014-.251-.686c-.325-.888-1.149-1.516-2.098-1.587h-.01l-.009-.001-.146-.006z"/>
        <path stroke-width=".2" d="M14.66 0c.99 0 1.837.686 2.06 1.635l.03.16.02.164.005.157V4.18c0 .99-.685 1.838-1.634 2.06l-.161.031-.163.019-.157.006H8.467c-.99 0-1.838-.686-2.06-1.635l-.031-.16-.019-.164-.006-.157V2.116c0-.99.686-1.838 1.635-2.06l.16-.031.164-.02L8.467 0h6.193zm-.31 1.187H8.776l-.13.007-.14.023-.133.039c-.348.12-.623.386-.754.727l-.044.142-.026.134-.01.146-.001 1.465.007.13.023.14.038.134c.121.347.386.623.728.754l.142.044.133.025.147.011 5.594.001.13-.007.14-.023.134-.039c.347-.12.623-.386.754-.727l.044-.142.025-.134.011-.147V2.425l-.006-.132-.022-.132-.036-.129c-.17-.501-.637-.845-1.174-.845z"/>
    </g>
    <defs>
        <clipPath id="clip0">
            <path fill="#fff" d="M0 0H24V24H0z"/>
        </clipPath>
    </defs>
</svg>
