<svg xmlns="http://www.w3.org/2000/svg" width="36" height="36" fill="none" viewBox="0 0 36 36">
    <path fill="#49C759" fill-rule="evenodd" d="M18 36c9.941 0 18-8.059 18-18S27.941 0 18 0 0 8.059 0 18s8.059 18 18 18zM7.898 17.098C7.9 11.249 12.691 6.492 18.576 6.492c2.856.001 5.535 1.105 7.55 3.11 2.017 2.005 3.126 4.671 3.124 7.506-.003 5.848-4.792 10.606-10.676 10.606h-.004c-1.787-.001-3.543-.445-5.102-1.29l-5.593 1.313L9.324 22.4c-.934-1.608-1.427-3.434-1.426-5.303zm16.718-5.994c-1.613-1.602-3.759-2.486-6.042-2.488-4.706 0-8.536 3.806-8.538 8.482-.001 1.49.393 2.957 1.14 4.24l.442.764-.232.85-.513 1.897 2.104-.494.796-.187.72.39c1.243.675 2.654 1.03 4.079 1.032 4.71 0 8.538-3.806 8.54-8.484.002-2.267-.884-4.398-2.496-6.002zm-10.53 1.43c.244-.266.533-.333.711-.333h.012c.174 0 .346 0 .498.007.19.007.401.017.601.458.138.304.37.871.553 1.32.134.327.242.591.27.647.066.133.111.289.023.465l-.035.068c-.068.139-.118.24-.233.374-.046.053-.093.11-.14.168-.09.11-.18.218-.258.296-.134.132-.274.277-.12.542.157.265.692 1.132 1.485 1.834.851.754 1.59 1.074 1.967 1.237.074.032.135.058.179.08.267.133.422.11.578-.068.156-.176.666-.772.844-1.037.177-.266.356-.221.6-.133.246.088 1.557.728 1.823.86l.148.073c.186.088.31.148.364.237.066.11.066.642-.157 1.261-.222.62-1.312 1.216-1.801 1.26-.047.004-.093.01-.14.015-.453.053-1.022.12-3.06-.68-2.51-.982-4.164-3.42-4.502-3.918l-.056-.081-.002-.004c-.143-.19-1.088-1.443-1.088-2.739 0-1.222.606-1.86.884-2.154l.052-.056z" clip-rule="evenodd"/>
</svg>
